<?xml version="1.0" encoding="UTF-8" standalone="no"?>
<!-- Created with Inkscape (http://www.inkscape.org/) -->

<svg
   xmlns:dc="http://purl.org/dc/elements/1.1/"
   xmlns:cc="http://creativecommons.org/ns#"
   xmlns:rdf="http://www.w3.org/1999/02/22-rdf-syntax-ns#"
   xmlns:svg="http://www.w3.org/2000/svg"
   xmlns="http://www.w3.org/2000/svg"
   xmlns:sodipodi="http://sodipodi.sourceforge.net/DTD/sodipodi-0.dtd"
   xmlns:inkscape="http://www.inkscape.org/namespaces/inkscape"
   width="116.68094mm"
   height="77.958641mm"
   viewBox="85.1 114 35.010115 23.391489"
   version="1.1"
   id="svg3790"
   inkscape:version="0.92.1 r15371"
   sodipodi:docname="solar.svg">
  <defs
     id="defs3784" />
  <sodipodi:namedview
     id="base"
     pagecolor="#ffffff"
     bordercolor="#666666"
     borderopacity="1.0"
     inkscape:pageopacity="0.0"
     inkscape:pageshadow="2"
     inkscape:zoom="1.0588948"
     inkscape:cx="138.67201"
     inkscape:cy="116.51466"
     inkscape:document-units="mm"
     inkscape:current-layer="g3730"
     showgrid="false"
     inkscape:window-width="1440"
     inkscape:window-height="837"
     inkscape:window-x="-8"
     inkscape:window-y="-8"
     inkscape:window-maximized="1"
     scale-x="0.30005"
     viewbox-width="202.1"
     viewbox-x="85.1"
     viewbox-y="114"
     fit-margin-top="0"
     fit-margin-left="0"
     fit-margin-right="0"
     fit-margin-bottom="0" />
  <metadata
     id="metadata3787">
    <rdf:RDF>
      <cc:Work
         rdf:about="">
        <dc:format>image/svg+xml</dc:format>
        <dc:type
           rdf:resource="http://purl.org/dc/dcmitype/StillImage" />
        <dc:title></dc:title>
      </cc:Work>
    </rdf:RDF>
  </metadata>
  <g
     inkscape:label="Livello 1"
     inkscape:groupmode="layer"
     id="layer1"
     transform="translate(-7.5937584,-20.337118)">
    <g
       id="g3730"
       transform="matrix(0.26458333,0,0,0.26458333,91.724479,135.69566)">
      <path
         inkscape:connector-curvature="0"
         d="m 92.282151,48.583361 c -3.9,2.7 -7.8,5.3 -11.7,8 -2.2,-0.8 -4.3,-1.7 -6.4,-2.5 3.6,-2.5 7.2,-4.9 10.8,-7.4 2.5,0.7 4.9,1.3 7.3,1.9 z"
         id="path3680"
         style="fill:#2c3b52;fill-opacity:1" />
      <path
         inkscape:connector-curvature="0"
         d="m 117.88215,24.283361 c 3.2,0.1 6.4,0.2 9.6,0.3 -3.9,2.7 -7.8,5.3 -11.7,8 -2.9,-0.3 -5.8,-0.6 -8.7,-0.9 3.6,-2.5 7.2,-5 10.8,-7.4 z"
         id="path3682"
         style="fill:#2c3b52;fill-opacity:1" />
      <path
         inkscape:connector-curvature="0"
         d="m 95.582151,39.483361 c 2.7,0.5 5.299999,0.9 7.999999,1.4 -3.5,2.4 -6.999999,4.8 -10.499999,7.2 -2.4,-0.6 -4.8,-1.3 -7.3,-1.9 3.3,-2.3 6.6,-4.5 9.8,-6.7 z"
         id="path3684"
         style="fill:#2c3b52;fill-opacity:1" />
      <path
         inkscape:connector-curvature="0"
         d="m 106.28215,32.183361 c 2.9,0.3 5.8,0.6 8.7,0.9 -3.5,2.4 -7,4.8 -10.5,7.1 -2.7,-0.5 -5.299999,-0.9 -7.999999,-1.4 3.3,-2.2 6.599999,-4.4 9.799999,-6.6 z"
         id="path3686"
         style="fill:#2c3b52;fill-opacity:1" />
      <path
         inkscape:connector-curvature="0"
         d="m 99.782151,30.883361 c 0.999999,-0.7 1.899999,-1.3 2.699999,-1.9 2.3,-1.6 4.5,-3.1 6.8,-4.7 0.2,-0.1 0.7,-0.3 0.9,-0.3 2.1,0 4.1,0.1 6.2,0.2 -3.6,2.4 -7.1,4.8 -10.7,7.3 -1.8,-0.2 -3.8,-0.4 -5.899999,-0.6 z"
         id="path3688"
         style="fill:#2c3b52;fill-opacity:1" />
      <path
         inkscape:connector-curvature="0"
         d="m 69.482151,51.583361 c 3,-2 5.9,-4 8.9,-6.1 0.2,-0.1 0.4,-0.2 0.6,-0.4 1.7,0.4 3.4,0.9 5,1.3 -3.6,2.4 -7.1,4.8 -10.7,7.3 -1.3,-0.5 -2.6,-1 -3.9,-1.5 -0.4,-0.2 -0.3,-0.3 0.1,-0.6 z"
         id="path3690"
         style="fill:#2c3b52;fill-opacity:1" />
      <path
         inkscape:connector-curvature="0"
         d="m 67.982151,51.583361 c -1.4,-0.5 -2.7,-1.1 -4.1,-1.6 -0.4,-0.2 -0.5,-0.3 0,-0.6 2.8,-1.9 5.5,-3.7 8.2,-5.6 0.2,-0.1 0.4,-0.2 0.6,-0.4 1.8,0.5 3.5,0.9 5.2,1.4 -3.3,2.3 -6.5,4.6 -9.9,6.8 z"
         id="path3692"
         style="fill:#2c3b52;fill-opacity:1" />
      <path
         inkscape:connector-curvature="0"
         d="m 101.88215,23.783361 c 2.2,0.1 4.4,0.1 6.6,0.2 -3.3,2.3 -6.6,4.5 -9.899999,6.8 -2.1,-0.2 -4.1,-0.4 -6.3,-0.7 3,-2.1 6,-4.1 8.999999,-6.1 0.2,-0.1 0.5,-0.2 0.6,-0.2 z"
         id="path3694"
         style="fill:#2c3b52;fill-opacity:1" />
      <path
         inkscape:connector-curvature="0"
         d="m 80.482151,44.783361 c -0.6,-0.1 -0.6,-0.3 -0.1,-0.6 2.7,-1.8 5.4,-3.7 8.1,-5.5 0.2,-0.1 0.4,-0.2 0.6,-0.4 1.9,0.3 3.7,0.7 5.5,1 -3.2,2.2 -6.4,4.4 -9.7,6.6 -1.5,-0.4 -2.9,-0.8 -4.4,-1.1 z"
         id="path3696"
         style="fill:#2c3b52;fill-opacity:1" />
      <path
         inkscape:connector-curvature="0"
         d="m 104.98215,32.083361 c -3.3,2.2 -6.399999,4.4 -9.599999,6.6 -1.8,-0.3 -3.6,-0.6 -5.5,-1 3.1,-2.1 6.1,-4.2 9.2,-6.3 1.999999,0.3 3.899999,0.5 5.899999,0.7 z"
         id="path3698"
         style="fill:#2c3b52;fill-opacity:1" />
      <path
         inkscape:connector-curvature="0"
         d="m 78.782151,44.283361 c -1.8,-0.5 -3.5,-0.9 -5.2,-1.4 2.9,-2 5.7,-3.9 8.5,-5.8 1.9,0.3 3.8,0.7 5.7,1 -3,2.1 -6,4.1 -9,6.2 z"
         id="path3700"
         style="fill:#2c3b52;fill-opacity:1" />
      <path
         inkscape:connector-curvature="0"
         d="m 88.682151,37.483361 c -1.9,-0.3 -3.8,-0.7 -5.7,-1 2.8,-1.9 5.7,-3.9 8.5,-5.8 2.1,0.2 4.1,0.4 6.2,0.7 -3,2 -6,4 -9,6.1 z"
         id="path3702"
         style="fill:#2c3b52;fill-opacity:1" />
      <path
         inkscape:connector-curvature="0"
         d="m 67.782151,40.583361 c -2.7,1.8 -5.4,3.7 -8,5.5 -1.5,-0.6 -2.9,-1.1 -4.4,-1.7 2.5,-1.7 5,-3.4 7.4,-5.1 1.6,0.4 3.3,0.8 5,1.3 z"
         id="path3704"
         style="fill:#2c3b52;fill-opacity:1" />
      <path
         inkscape:connector-curvature="0"
         d="m 85.382151,23.783361 c 2.2,0.1 4.4,0.2 6.6,0.2 -2.7,1.9 -5.4,3.7 -8,5.5 -2,-0.2 -4,-0.4 -6,-0.6 2.5,-1.8 4.9,-3.4 7.4,-5.1 z"
         id="path3706"
         style="fill:#2c3b52;fill-opacity:1" />
      <path
         inkscape:connector-curvature="0"
         d="m 45.882151,41.283361 27.2,-18.4 c 0.5,-0.3 0.9,-0.6 0.9,-0.6 0,0 0.1,0 0.1,0 0,0 0.5,0 1.1,0 l 19,0.5 c 0.6,0 1.4,0 1.7,0 0.3,0 0.4,0.2 0.1,0.4 -0.3,0.2 -0.9,0.6 -1.4,1 l -16.6,11.4 c 0,1 0,1.8 0,2.2 l 22,-14.8 c 0.699999,-0.5 1.299999,-0.9 1.399999,-0.9 0.1,0 0.1,-0.1 0.2,-0.1 0.1,0 0.8,0 1.6,0 l 27.6,0.8 c 0.8,0 2,0.1 2.5,0.1 0.5,0 0.6,0.3 0.2,0.6 -0.4,0.3 -1.3,0.9 -2,1.4 l -21.4,14.8 c 0,8.9 0,26.4 0,37 3.8,1.8 6.3,3 6.4,3.1 0.9,0.8 -5.3,1.3 -6.4,1.1 -1.2,-0.4 -48.999999,-25.6 -57.599999,-30.6 h 0.8 c 0,0 6,2.9 13,6.5 v -3.1 l -5.9,-2.7 c -0.8,-0.3 -0.8,-1 -0.1,-1.5 l 6,-4.1 v -2 l -5.6,4 c -0.5,0.3 -0.8,0.6 -0.9,0.7 -0.1,0 -0.5,-0.1 -1,-0.3 l -12.9,-5.5 c -0.5,-0.3 -0.5,-0.7 0,-1 z m 52.6,30 c 2.799999,1.3 5.799999,2.5 7.799999,3.6 v -32.8 l -7.699999,5.4 c -0.1,9.1 -0.1,14.7 -0.1,23.8 z m -4.2,-1.7 v -19.6 l -12.2,8.7 c -0.7,0.5 -1.2,0.9 -1.2,1 -0.1,0.1 -0.7,-0.2 -1.5,-0.5 l -1.2,-0.6 -0.3,3.4 c 5.5,2.5 11.4,5.1 16.4,7.6 z m -25.4,-11.7 c 2.1,1 4.4,2 6.4,3.1 v -3.3 l -6.5,-2.9 z m -6.6,-8.6 c -0.7,0.5 -0.6,1.1 0.1,1.4 l 16.9,7 c 0.8,0.3 2,0.2 2.7,-0.3 l 47.099999,-32.5 c 0.7,-0.5 0.6,-0.9 -0.3,-0.9 l -25.5,-1.1 c -0.8,0 -2.1,0.3 -2.8,0.8 z m 15.8,-11.5 c 0,-0.5 0,-1.1 0,-1.7 0,0.4 0,1 0,1.7 z m -2.8,1.5 v -2.2 l -6.9,4.8 0.2,2 z m -28.2,2.7 11.7,4.8 c 0.5,0.2 1.4,0.1 1.8,-0.2 l 32.6,-22.4 c 0.5,-0.3 0.4,-0.6 -0.2,-0.6 l -17.7,-0.8 c -0.6,0 -1.5,0.2 -1.9,0.5 l -26.4,17.7 c -0.5,0.4 -0.4,0.8 0.1,1 z"
         id="path3708" />
      <path
         inkscape:connector-curvature="0"
         d="m 69.982151,34.283361 c 1.9,0.3 3.7,0.7 5.5,1 -2.4,1.7 -4.8,3.3 -7.2,4.9 -1.7,-0.4 -3.3,-0.9 -5,-1.3 2.3,-1.6 4.5,-3.1 6.7,-4.6 z"
         id="path3710"
         style="fill:#2c3b52;fill-opacity:1" />
      <path
         inkscape:connector-curvature="0"
         d="m 77.382151,29.183361 c 2,0.2 4,0.4 6,0.6 -2.4,1.7 -4.8,3.3 -7.2,4.9 -1.9,-0.3 -3.7,-0.6 -5.5,-1 2.2,-1.4 4.5,-2.9 6.7,-4.5 z"
         id="path3712"
         style="fill:#2c3b52;fill-opacity:1" />
      <path
         inkscape:connector-curvature="0"
         d="m 72.882151,28.283361 c 0.7,-0.5 1.3,-0.9 1.9,-1.3 1.6,-1.1 3.1,-2.1 4.7,-3.2 0.1,-0.1 0.5,-0.2 0.7,-0.2 1.4,0 2.8,0.1 4.3,0.1 -2.5,1.7 -4.9,3.3 -7.4,5 -1.4,-0.1 -2.7,-0.2 -4.2,-0.4 z"
         id="path3714"
         style="fill:#2c3b52;fill-opacity:1" />
      <path
         inkscape:connector-curvature="0"
         d="m 51.982151,42.583361 c 2.1,-1.4 4.1,-2.8 6.2,-4.2 0.1,-0.1 0.3,-0.2 0.4,-0.3 1.2,0.3 2.3,0.6 3.5,0.9 -2.5,1.7 -4.9,3.3 -7.4,5 -0.9,-0.4 -1.8,-0.7 -2.7,-1 -0.3,-0.1 -0.3,-0.2 0,-0.4 z"
         id="path3716"
         style="fill:#2c3b52;fill-opacity:1" />
      <path
         inkscape:connector-curvature="0"
         d="m 48.182151,41.183361 c 1.9,-1.3 3.8,-2.6 5.7,-3.9 0.1,-0.1 0.3,-0.2 0.4,-0.3 1.2,0.3 2.4,0.6 3.6,0.9 -2.3,1.6 -4.6,3.1 -6.9,4.7 -1,-0.4 -1.9,-0.7 -2.8,-1.1 -0.3,0 -0.3,-0.1 0,-0.3 z"
         id="path3718"
         style="fill:#2c3b52;fill-opacity:1" />
      <path
         inkscape:connector-curvature="0"
         d="m 67.782151,27.783361 c 2.1,-1.4 4.1,-2.8 6.2,-4.2 0.1,-0.1 0.3,-0.1 0.4,-0.1 1.5,0 3,0.1 4.6,0.2 -2.3,1.6 -4.5,3.1 -6.9,4.7 -1.4,-0.3 -2.9,-0.5 -4.3,-0.6 z"
         id="path3720"
         style="fill:#2c3b52;fill-opacity:1" />
      <path
         inkscape:connector-curvature="0"
         d="m 59.582151,37.883361 c -0.4,-0.1 -0.4,-0.2 -0.1,-0.4 1.9,-1.3 3.7,-2.5 5.6,-3.8 0.1,-0.1 0.3,-0.2 0.4,-0.3 1.3,0.2 2.5,0.4 3.8,0.7 -2.2,1.5 -4.4,3 -6.7,4.6 -1,-0.3 -2,-0.6 -3,-0.8 z"
         id="path3722"
         style="fill:#2c3b52;fill-opacity:1" />
      <path
         inkscape:connector-curvature="0"
         d="m 76.482151,29.183361 c -2.2,1.5 -4.4,3 -6.7,4.5 -1.3,-0.2 -2.5,-0.4 -3.8,-0.7 2.1,-1.4 4.2,-2.9 6.3,-4.3 1.5,0.2 2.8,0.3 4.2,0.5 z"
         id="path3724"
         style="fill:#2c3b52;fill-opacity:1" />
      <path
         inkscape:connector-curvature="0"
         d="m 58.382151,37.583361 c -1.2,-0.3 -2.4,-0.6 -3.6,-0.9 2,-1.4 3.9,-2.7 5.9,-4 1.3,0.2 2.6,0.5 4,0.7 -2.1,1.3 -4.2,2.7 -6.3,4.2 z"
         id="path3726"
         style="fill:#2c3b52;fill-opacity:1" />
      <path
         inkscape:connector-curvature="0"
         d="m 65.282151,32.883361 c -1.3,-0.2 -2.6,-0.5 -3.9,-0.7 2,-1.3 3.9,-2.7 5.9,-4 1.4,0.1 2.8,0.3 4.3,0.5 -2.2,1.4 -4.2,2.8 -6.3,4.2 z"
         id="path3728"
         style="fill:#2c3b52;fill-opacity:1" />
    </g>
  </g>
</svg>
